# xmcd
#
# Track frame offsets:
#	150
#	28326
#	45252
#	66316
#	83469
#	99751
#	113964
#	146236
#	169209
#	184812
#	201651
#	215989
#	226674
#	248069
#	264932
#
# Disc length: 3758 seconds
#
# Revision: 0
# Processed by: cddbd v1.5.1PL2 Copyright (c) Steve Scherf et al.
# Submitted via: dBpowerAMP V4.0
#
DISCID=d50eac0f
DTITLE=Pat Green - Here We Go
DYEAR=1900
DGENRE=Country
TTITLE0=George's Bar
TTITLE1=John Wayne and Jesus
TTITLE2=Southbound 35
TTITLE3=Me And Billy The Kid
TTITLE4=Dancehall Dreamer
TTITLE5=Down To The River
TTITLE6=I Like Texas
TTITLE7=#2
TTITLE8=Nightmare
TTITLE9=West Texas Holiday
TTITLE10=If I Had A Million
TTITLE11=Band Introductions
TTITLE12=Songs About Texas
TTITLE13=Here We Go
TTITLE14=Three Days
EXTD=
EXTT0=
EXTT1=
EXTT2=
EXTT3=
EXTT4=
EXTT5=
EXTT6=
EXTT7=
EXTT8=
EXTT9=
EXTT10=
EXTT11=
EXTT12=
EXTT13=
EXTT14=
PLAYORDER=
